<mxfile host="app.diagrams.net" agent="Mozilla/5.0 (Windows NT 10.0; Win64; x64) AppleWebKit/537.36 (KHTML, like Gecko) Chrome/129.0.0.0 Safari/537.36" version="24.8.1" pages="2">
  <diagram id="fc1f3b67-3c9b-b1b3-7705-706421d27264" name="ERD Habit Tracker app">
    <mxGraphModel dx="1804" dy="592" grid="1" gridSize="10" guides="1" tooltips="1" connect="1" arrows="1" fold="1" page="1" pageScale="1" pageWidth="850" pageHeight="1100" math="0" shadow="0">
      <root>
        <mxCell id="0" />
        <mxCell id="1" parent="0" />
        <mxCell id="Eqqo3SQHtR8swUhiLJ6l-47" value="" style="edgeStyle=none;rounded=0;orthogonalLoop=1;jettySize=auto;html=1;strokeColor=default;align=center;verticalAlign=middle;fontFamily=Helvetica;fontSize=11;fontColor=default;labelBackgroundColor=default;endArrow=none;endFill=0;" parent="1" source="Eqqo3SQHtR8swUhiLJ6l-2" edge="1">
          <mxGeometry relative="1" as="geometry">
            <mxPoint x="-92.66617575187615" y="322.8204184138224" as="targetPoint" />
          </mxGeometry>
        </mxCell>
        <mxCell id="Eqqo3SQHtR8swUhiLJ6l-2" value="EMPLOYEE" style="whiteSpace=wrap;html=1;align=center;" parent="1" vertex="1">
          <mxGeometry x="80" y="260" width="100" height="40" as="geometry" />
        </mxCell>
        <mxCell id="Eqqo3SQHtR8swUhiLJ6l-30" value="" style="edgeStyle=none;rounded=0;orthogonalLoop=1;jettySize=auto;html=1;strokeColor=default;align=center;verticalAlign=middle;fontFamily=Helvetica;fontSize=11;fontColor=default;labelBackgroundColor=default;endArrow=none;endFill=0;" parent="1" source="Eqqo3SQHtR8swUhiLJ6l-79" edge="1">
          <mxGeometry relative="1" as="geometry">
            <mxPoint x="362.44610425399514" y="380.3598710603874" as="targetPoint" />
          </mxGeometry>
        </mxCell>
        <mxCell id="Eqqo3SQHtR8swUhiLJ6l-76" value="" style="fontSize=12;html=1;endArrow=ERzeroToOne;endFill=1;rounded=0;strokeColor=default;align=center;verticalAlign=middle;fontFamily=Helvetica;fontColor=default;labelBackgroundColor=default;exitX=1;exitY=0.5;exitDx=0;exitDy=0;" parent="1" source="Eqqo3SQHtR8swUhiLJ6l-79" edge="1">
          <mxGeometry width="100" height="100" relative="1" as="geometry">
            <mxPoint x="370" y="285" as="sourcePoint" />
            <mxPoint x="480" y="280.8196721311475" as="targetPoint" />
          </mxGeometry>
        </mxCell>
        <mxCell id="Eqqo3SQHtR8swUhiLJ6l-78" value="" style="fontSize=12;html=1;endArrow=ERmandOne;rounded=0;strokeColor=default;align=center;verticalAlign=middle;fontFamily=Helvetica;fontColor=default;labelBackgroundColor=default;exitX=0;exitY=0.5;exitDx=0;exitDy=0;" parent="1" source="Eqqo3SQHtR8swUhiLJ6l-79" target="Eqqo3SQHtR8swUhiLJ6l-2" edge="1">
          <mxGeometry width="100" height="100" relative="1" as="geometry">
            <mxPoint x="291.29032258064535" y="284.0322580645161" as="sourcePoint" />
            <mxPoint x="280" y="280" as="targetPoint" />
          </mxGeometry>
        </mxCell>
        <mxCell id="Eqqo3SQHtR8swUhiLJ6l-79" value="manages" style="shape=associativeEntity;whiteSpace=wrap;html=1;align=center;fontFamily=Helvetica;fontSize=11;fontColor=default;labelBackgroundColor=default;" parent="1" vertex="1">
          <mxGeometry x="272.5" y="260" width="105" height="45" as="geometry" />
        </mxCell>
      </root>
    </mxGraphModel>
  </diagram>
  <diagram id="cdb5e136-1861-7ef1-5e76-c57f7e18aa8d" name="ERD Data Structure - Habit Tracker App">
    <mxGraphModel pageWidth="1100" pageHeight="850" fold="1" pageScale="1" math="0" shadow="0">
      <root>
        <mxCell id="0" />
        <mxCell id="1" parent="0" />
        <mxCell id="4a63a70a29bb4ada-31" value="" style="edgeStyle=none;rounded=0;html=1;startArrow=ERzeroToMany;startFill=1;endArrow=ERzeroToOne;endFill=1;jettySize=auto;orthogonalLoop=1;fontSize=10;strokeColor=#000066;" edge="1" source="4a63a70a29bb4ada-1" target="4a63a70a29bb4ada-18" parent="1">
          <mxGeometry relative="1" as="geometry" />
        </mxCell>
        <mxCell id="4a63a70a29bb4ada-45" value="" style="edgeStyle=none;rounded=0;html=1;startArrow=ERoneToMany;startFill=0;endArrow=ERzeroToMany;endFill=1;jettySize=auto;orthogonalLoop=1;fontSize=10;strokeColor=#000066;" edge="1" source="4a63a70a29bb4ada-1" target="4a63a70a29bb4ada-32" parent="1">
          <mxGeometry relative="1" as="geometry" />
        </mxCell>
        <mxCell id="4a63a70a29bb4ada-1" value="Users" style="swimlane;fontStyle=0;childLayout=stackLayout;horizontal=1;startSize=26;fillColor=#ffe6cc;horizontalStack=0;resizeParent=1;resizeParentMax=0;resizeLast=0;collapsible=1;marginBottom=0;swimlaneFillColor=#ffffff;align=center;strokeWidth=1;fontSize=13;strokeColor=#d79b00;" vertex="1" parent="1">
          <mxGeometry x="80" y="41" width="160" height="144" as="geometry" />
        </mxCell>
        <mxCell id="4a63a70a29bb4ada-2" value="UserID" style="shape=partialRectangle;top=0;left=0;right=0;bottom=1;align=left;verticalAlign=middle;fillColor=none;spacingLeft=34;spacingRight=4;overflow=hidden;rotatable=0;points=[[0,0.5],[1,0.5]];portConstraint=eastwest;dropTarget=0;fontStyle=5;" vertex="1" parent="4a63a70a29bb4ada-1">
          <mxGeometry y="26" width="160" height="30" as="geometry" />
        </mxCell>
        <mxCell id="4a63a70a29bb4ada-3" value="PK" style="shape=partialRectangle;top=0;left=0;bottom=0;fillColor=none;align=left;verticalAlign=middle;spacingLeft=4;spacingRight=4;overflow=hidden;rotatable=0;points=[];portConstraint=eastwest;part=1;fontStyle=1" vertex="1" connectable="0" parent="4a63a70a29bb4ada-2">
          <mxGeometry width="30" height="30" as="geometry" />
        </mxCell>
        <mxCell id="4a63a70a29bb4ada-6" value="CoachID" style="shape=partialRectangle;top=0;left=0;right=0;bottom=0;align=left;verticalAlign=top;fillColor=none;spacingLeft=34;spacingRight=4;overflow=hidden;rotatable=0;points=[[0,0.5],[1,0.5]];portConstraint=eastwest;dropTarget=0;fontStyle=2" vertex="1" parent="4a63a70a29bb4ada-1">
          <mxGeometry y="56" width="160" height="26" as="geometry" />
        </mxCell>
        <mxCell id="4a63a70a29bb4ada-7" value="FK" style="shape=partialRectangle;top=0;left=0;bottom=0;fillColor=none;align=left;verticalAlign=top;spacingLeft=4;spacingRight=4;overflow=hidden;rotatable=0;points=[];portConstraint=eastwest;part=1;fontStyle=2" vertex="1" connectable="0" parent="4a63a70a29bb4ada-6">
          <mxGeometry width="30" height="26" as="geometry" />
        </mxCell>
        <mxCell id="5ecfb9fce94ea102-8" value="Name" style="shape=partialRectangle;top=0;left=0;right=0;bottom=0;align=left;verticalAlign=top;fillColor=none;spacingLeft=34;spacingRight=4;overflow=hidden;rotatable=0;points=[[0,0.5],[1,0.5]];portConstraint=eastwest;dropTarget=0;" vertex="1" parent="4a63a70a29bb4ada-1">
          <mxGeometry y="82" width="160" height="26" as="geometry" />
        </mxCell>
        <mxCell id="5ecfb9fce94ea102-9" value="" style="shape=partialRectangle;top=0;left=0;bottom=0;fillColor=none;align=left;verticalAlign=top;spacingLeft=4;spacingRight=4;overflow=hidden;rotatable=0;points=[];portConstraint=eastwest;part=1;" vertex="1" connectable="0" parent="5ecfb9fce94ea102-8">
          <mxGeometry width="30" height="26" as="geometry" />
        </mxCell>
        <mxCell id="4a63a70a29bb4ada-16" value="HabitNum" style="shape=partialRectangle;top=0;left=0;right=0;bottom=0;align=left;verticalAlign=top;fillColor=none;spacingLeft=34;spacingRight=4;overflow=hidden;rotatable=0;points=[[0,0.5],[1,0.5]];portConstraint=eastwest;dropTarget=0;" vertex="1" parent="4a63a70a29bb4ada-1">
          <mxGeometry y="108" width="160" height="26" as="geometry" />
        </mxCell>
        <mxCell id="4a63a70a29bb4ada-17" value="" style="shape=partialRectangle;top=0;left=0;bottom=0;fillColor=none;align=left;verticalAlign=top;spacingLeft=4;spacingRight=4;overflow=hidden;rotatable=0;points=[];portConstraint=eastwest;part=1;" vertex="1" connectable="0" parent="4a63a70a29bb4ada-16">
          <mxGeometry width="30" height="26" as="geometry" />
        </mxCell>
        <mxCell id="4a63a70a29bb4ada-10" value="" style="shape=partialRectangle;top=0;left=0;right=0;bottom=0;align=left;verticalAlign=top;fillColor=none;spacingLeft=34;spacingRight=4;overflow=hidden;rotatable=0;points=[[0,0.5],[1,0.5]];portConstraint=eastwest;dropTarget=0;" vertex="1" parent="4a63a70a29bb4ada-1">
          <mxGeometry y="134" width="160" height="10" as="geometry" />
        </mxCell>
        <mxCell id="4a63a70a29bb4ada-11" value="" style="shape=partialRectangle;top=0;left=0;bottom=0;fillColor=none;align=left;verticalAlign=top;spacingLeft=4;spacingRight=4;overflow=hidden;rotatable=0;points=[];portConstraint=eastwest;part=1;" vertex="1" connectable="0" parent="4a63a70a29bb4ada-10">
          <mxGeometry width="30" height="10" as="geometry" />
        </mxCell>
        <mxCell id="4a63a70a29bb4ada-32" value="Habits" style="swimlane;fontStyle=0;childLayout=stackLayout;horizontal=1;startSize=26;fillColor=#FFE6CC;horizontalStack=0;resizeParent=1;resizeParentMax=0;resizeLast=0;collapsible=1;marginBottom=0;swimlaneFillColor=#ffffff;align=center;strokeWidth=1;fontSize=13;strokeColor=#d79b00;" vertex="1" parent="1">
          <mxGeometry x="429" y="67" width="160" height="92" as="geometry" />
        </mxCell>
        <mxCell id="4a63a70a29bb4ada-33" value="HabitID" style="shape=partialRectangle;top=0;left=0;right=0;bottom=1;align=left;verticalAlign=middle;fillColor=none;spacingLeft=34;spacingRight=4;overflow=hidden;rotatable=0;points=[[0,0.5],[1,0.5]];portConstraint=eastwest;dropTarget=0;fontStyle=5;" vertex="1" parent="4a63a70a29bb4ada-32">
          <mxGeometry y="26" width="160" height="30" as="geometry" />
        </mxCell>
        <mxCell id="4a63a70a29bb4ada-34" value="PK" style="shape=partialRectangle;top=0;left=0;bottom=0;fillColor=none;align=left;verticalAlign=middle;spacingLeft=4;spacingRight=4;overflow=hidden;rotatable=0;points=[];portConstraint=eastwest;part=1;fontStyle=1" vertex="1" connectable="0" parent="4a63a70a29bb4ada-33">
          <mxGeometry width="30" height="30" as="geometry" />
        </mxCell>
        <mxCell id="4a63a70a29bb4ada-37" value="HabitName" style="shape=partialRectangle;top=0;left=0;right=0;bottom=0;align=left;verticalAlign=top;fillColor=none;spacingLeft=34;spacingRight=4;overflow=hidden;rotatable=0;points=[[0,0.5],[1,0.5]];portConstraint=eastwest;dropTarget=0;" vertex="1" parent="4a63a70a29bb4ada-32">
          <mxGeometry y="56" width="160" height="26" as="geometry" />
        </mxCell>
        <mxCell id="4a63a70a29bb4ada-38" value="" style="shape=partialRectangle;top=0;left=0;bottom=0;fillColor=none;align=left;verticalAlign=top;spacingLeft=4;spacingRight=4;overflow=hidden;rotatable=0;points=[];portConstraint=eastwest;part=1;" vertex="1" connectable="0" parent="4a63a70a29bb4ada-37">
          <mxGeometry width="30" height="26" as="geometry" />
        </mxCell>
        <mxCell id="4a63a70a29bb4ada-43" value="" style="shape=partialRectangle;top=0;left=0;right=0;bottom=0;align=left;verticalAlign=top;fillColor=none;spacingLeft=34;spacingRight=4;overflow=hidden;rotatable=0;points=[[0,0.5],[1,0.5]];portConstraint=eastwest;dropTarget=0;" vertex="1" parent="4a63a70a29bb4ada-32">
          <mxGeometry y="82" width="160" height="10" as="geometry" />
        </mxCell>
        <mxCell id="4a63a70a29bb4ada-44" value="" style="shape=partialRectangle;top=0;left=0;bottom=0;fillColor=none;align=left;verticalAlign=top;spacingLeft=4;spacingRight=4;overflow=hidden;rotatable=0;points=[];portConstraint=eastwest;part=1;" vertex="1" connectable="0" parent="4a63a70a29bb4ada-43">
          <mxGeometry width="30" height="10" as="geometry" />
        </mxCell>
        <mxCell id="4a63a70a29bb4ada-18" value="Coaches" style="swimlane;fontStyle=0;childLayout=stackLayout;horizontal=1;startSize=26;fillColor=#ffe6cc;horizontalStack=0;resizeParent=1;resizeParentMax=0;resizeLast=0;collapsible=1;marginBottom=0;swimlaneFillColor=#ffffff;align=center;strokeWidth=1;fontSize=13;strokeColor=#d79b00;" vertex="1" parent="1">
          <mxGeometry x="82" y="280" width="160" height="92" as="geometry" />
        </mxCell>
        <mxCell id="4a63a70a29bb4ada-19" value="CoachID" style="shape=partialRectangle;top=0;left=0;right=0;bottom=1;align=left;verticalAlign=middle;fillColor=none;spacingLeft=34;spacingRight=4;overflow=hidden;rotatable=0;points=[[0,0.5],[1,0.5]];portConstraint=eastwest;dropTarget=0;fontStyle=5;" vertex="1" parent="4a63a70a29bb4ada-18">
          <mxGeometry y="26" width="160" height="30" as="geometry" />
        </mxCell>
        <mxCell id="4a63a70a29bb4ada-20" value="PK" style="shape=partialRectangle;top=0;left=0;bottom=0;fillColor=none;align=left;verticalAlign=middle;spacingLeft=4;spacingRight=4;overflow=hidden;rotatable=0;points=[];portConstraint=eastwest;part=1;" vertex="1" connectable="0" parent="4a63a70a29bb4ada-19">
          <mxGeometry width="30" height="30" as="geometry" />
        </mxCell>
        <mxCell id="4a63a70a29bb4ada-23" value="Name" style="shape=partialRectangle;top=0;left=0;right=0;bottom=0;align=left;verticalAlign=top;fillColor=none;spacingLeft=34;spacingRight=4;overflow=hidden;rotatable=0;points=[[0,0.5],[1,0.5]];portConstraint=eastwest;dropTarget=0;" vertex="1" parent="4a63a70a29bb4ada-18">
          <mxGeometry y="56" width="160" height="26" as="geometry" />
        </mxCell>
        <mxCell id="4a63a70a29bb4ada-24" value="" style="shape=partialRectangle;top=0;left=0;bottom=0;fillColor=none;align=left;verticalAlign=top;spacingLeft=4;spacingRight=4;overflow=hidden;rotatable=0;points=[];portConstraint=eastwest;part=1;" vertex="1" connectable="0" parent="4a63a70a29bb4ada-23">
          <mxGeometry width="30" height="26" as="geometry" />
        </mxCell>
        <mxCell id="4a63a70a29bb4ada-29" value="" style="shape=partialRectangle;top=0;left=0;right=0;bottom=0;align=left;verticalAlign=top;fillColor=none;spacingLeft=34;spacingRight=4;overflow=hidden;rotatable=0;points=[[0,0.5],[1,0.5]];portConstraint=eastwest;dropTarget=0;" vertex="1" parent="4a63a70a29bb4ada-18">
          <mxGeometry y="82" width="160" height="10" as="geometry" />
        </mxCell>
        <mxCell id="4a63a70a29bb4ada-30" value="" style="shape=partialRectangle;top=0;left=0;bottom=0;fillColor=none;align=left;verticalAlign=top;spacingLeft=4;spacingRight=4;overflow=hidden;rotatable=0;points=[];portConstraint=eastwest;part=1;" vertex="1" connectable="0" parent="4a63a70a29bb4ada-29">
          <mxGeometry width="30" height="10" as="geometry" />
        </mxCell>
        <mxCell id="4a63a70a29bb4ada-48" value="" style="edgeStyle=none;rounded=0;html=1;startArrow=ERmandOne;startFill=0;endArrow=ERzeroToMany;endFill=1;jettySize=auto;orthogonalLoop=1;strokeColor=#000066;fontSize=10;" edge="1" source="4a63a70a29bb4ada-12" target="4a63a70a29bb4ada-26" parent="1">
          <mxGeometry relative="1" as="geometry" />
        </mxCell>
        <mxCell id="4a63a70a29bb4ada-12" value="Checkins" style="swimlane;fontStyle=0;childLayout=stackLayout;horizontal=1;startSize=26;fillColor=#ffe6cc;horizontalStack=0;resizeParent=1;resizeParentMax=0;resizeLast=0;collapsible=1;marginBottom=0;swimlaneFillColor=#ffffff;align=center;strokeWidth=1;fontSize=13;strokeColor=#d79b00;" vertex="1" parent="1">
          <mxGeometry x="655" y="67" width="160" height="134" as="geometry" />
        </mxCell>
        <mxCell id="4a63a70a29bb4ada-13" value="HabitCheckinID" style="shape=partialRectangle;top=0;left=0;right=0;bottom=1;align=left;verticalAlign=middle;fillColor=none;spacingLeft=34;spacingRight=4;overflow=hidden;rotatable=0;points=[[0,0.5],[1,0.5]];portConstraint=eastwest;dropTarget=0;fontStyle=5;" vertex="1" parent="4a63a70a29bb4ada-12">
          <mxGeometry y="26" width="160" height="30" as="geometry" />
        </mxCell>
        <mxCell id="4a63a70a29bb4ada-14" value="PK" style="shape=partialRectangle;top=0;left=0;bottom=0;fillColor=none;align=left;verticalAlign=middle;spacingLeft=4;spacingRight=4;overflow=hidden;rotatable=0;points=[];portConstraint=eastwest;part=1;" vertex="1" connectable="0" parent="4a63a70a29bb4ada-13">
          <mxGeometry width="30" height="30" as="geometry" />
        </mxCell>
        <mxCell id="4a63a70a29bb4ada-15" value="HabitID" style="shape=partialRectangle;top=0;left=0;right=0;bottom=0;align=left;verticalAlign=bottom;fillColor=none;spacingLeft=34;spacingRight=4;overflow=hidden;rotatable=0;points=[[0,0.5],[1,0.5]];portConstraint=eastwest;dropTarget=0;fontStyle=2" vertex="1" parent="4a63a70a29bb4ada-12">
          <mxGeometry y="56" width="160" height="26" as="geometry" />
        </mxCell>
        <mxCell id="4a63a70a29bb4ada-25" value="FK" style="shape=partialRectangle;top=0;left=0;bottom=0;fillColor=none;align=left;verticalAlign=top;spacingLeft=4;spacingRight=4;overflow=hidden;rotatable=0;points=[];portConstraint=eastwest;part=1;fontStyle=2" vertex="1" connectable="0" parent="4a63a70a29bb4ada-15">
          <mxGeometry width="30" height="26" as="geometry" />
        </mxCell>
        <mxCell id="5ecfb9fce94ea102-5" value="UserID" style="shape=partialRectangle;top=0;left=0;right=0;bottom=0;align=left;verticalAlign=bottom;fillColor=none;spacingLeft=34;spacingRight=4;overflow=hidden;rotatable=0;points=[[0,0.5],[1,0.5]];portConstraint=eastwest;dropTarget=0;fontStyle=2" vertex="1" parent="4a63a70a29bb4ada-12">
          <mxGeometry y="82" width="160" height="26" as="geometry" />
        </mxCell>
        <mxCell id="5ecfb9fce94ea102-6" value="FK" style="shape=partialRectangle;top=0;left=0;bottom=0;fillColor=none;align=left;verticalAlign=top;spacingLeft=4;spacingRight=4;overflow=hidden;rotatable=0;points=[];portConstraint=eastwest;part=1;fontStyle=2" vertex="1" connectable="0" parent="5ecfb9fce94ea102-5">
          <mxGeometry width="30" height="26" as="geometry" />
        </mxCell>
        <mxCell id="4f2698fda814bacb-1" value="CheckinDate" style="shape=partialRectangle;top=0;left=0;right=0;bottom=0;align=left;verticalAlign=top;fillColor=none;spacingLeft=34;spacingRight=4;overflow=hidden;rotatable=0;points=[[0,0.5],[1,0.5]];portConstraint=eastwest;dropTarget=0;" vertex="1" parent="4a63a70a29bb4ada-12">
          <mxGeometry y="108" width="160" height="26" as="geometry" />
        </mxCell>
        <mxCell id="4f2698fda814bacb-2" value="" style="shape=partialRectangle;top=0;left=0;bottom=0;fillColor=none;align=left;verticalAlign=top;spacingLeft=4;spacingRight=4;overflow=hidden;rotatable=0;points=[];portConstraint=eastwest;part=1;" vertex="1" connectable="0" parent="4f2698fda814bacb-1">
          <mxGeometry width="30" height="26" as="geometry" />
        </mxCell>
        <mxCell id="4a63a70a29bb4ada-26" value="Comments" style="swimlane;fontStyle=0;childLayout=stackLayout;horizontal=1;startSize=26;fillColor=#ffe6cc;horizontalStack=0;resizeParent=1;resizeParentMax=0;resizeLast=0;collapsible=1;marginBottom=0;swimlaneFillColor=#ffffff;align=center;strokeWidth=1;fontSize=13;strokeColor=#d79b00;" vertex="1" parent="1">
          <mxGeometry x="655" y="264" width="160" height="196" as="geometry" />
        </mxCell>
        <mxCell id="4a63a70a29bb4ada-27" value="CommentID" style="shape=partialRectangle;top=0;left=0;right=0;bottom=1;align=left;verticalAlign=middle;fillColor=none;spacingLeft=34;spacingRight=4;overflow=hidden;rotatable=0;points=[[0,0.5],[1,0.5]];portConstraint=eastwest;dropTarget=0;fontStyle=5;" vertex="1" parent="4a63a70a29bb4ada-26">
          <mxGeometry y="26" width="160" height="30" as="geometry" />
        </mxCell>
        <mxCell id="4a63a70a29bb4ada-28" value="PK" style="shape=partialRectangle;top=0;left=0;bottom=0;fillColor=none;align=left;verticalAlign=middle;spacingLeft=4;spacingRight=4;overflow=hidden;rotatable=0;points=[];portConstraint=eastwest;part=1;fontStyle=1" vertex="1" connectable="0" parent="4a63a70a29bb4ada-27">
          <mxGeometry width="30" height="30" as="geometry" />
        </mxCell>
        <mxCell id="4a63a70a29bb4ada-51" value="HabitCheckinID&#xa;" style="shape=partialRectangle;top=0;left=0;right=0;bottom=0;align=left;verticalAlign=top;fillColor=none;spacingLeft=34;spacingRight=4;overflow=hidden;rotatable=0;points=[[0,0.5],[1,0.5]];portConstraint=eastwest;dropTarget=0;fontStyle=2" vertex="1" parent="4a63a70a29bb4ada-26">
          <mxGeometry y="56" width="160" height="26" as="geometry" />
        </mxCell>
        <mxCell id="4a63a70a29bb4ada-52" value="FK" style="shape=partialRectangle;top=0;left=0;bottom=0;fillColor=none;align=left;verticalAlign=top;spacingLeft=4;spacingRight=4;overflow=hidden;rotatable=0;points=[];portConstraint=eastwest;part=1;fontStyle=2" vertex="1" connectable="0" parent="4a63a70a29bb4ada-51">
          <mxGeometry width="30" height="26" as="geometry" />
        </mxCell>
        <mxCell id="5ecfb9fce94ea102-3" value="UserID&#xa;" style="shape=partialRectangle;top=0;left=0;right=0;bottom=0;align=left;verticalAlign=top;fillColor=none;spacingLeft=34;spacingRight=4;overflow=hidden;rotatable=0;points=[[0,0.5],[1,0.5]];portConstraint=eastwest;dropTarget=0;fontStyle=2" vertex="1" parent="4a63a70a29bb4ada-26">
          <mxGeometry y="82" width="160" height="26" as="geometry" />
        </mxCell>
        <mxCell id="5ecfb9fce94ea102-4" value="FK" style="shape=partialRectangle;top=0;left=0;bottom=0;fillColor=none;align=left;verticalAlign=top;spacingLeft=4;spacingRight=4;overflow=hidden;rotatable=0;points=[];portConstraint=eastwest;part=1;fontStyle=2" vertex="1" connectable="0" parent="5ecfb9fce94ea102-3">
          <mxGeometry width="30" height="26" as="geometry" />
        </mxCell>
        <mxCell id="113bda5a66023eaa-7" value="CoachID&#xa;" style="shape=partialRectangle;top=0;left=0;right=0;bottom=0;align=left;verticalAlign=top;fillColor=none;spacingLeft=34;spacingRight=4;overflow=hidden;rotatable=0;points=[[0,0.5],[1,0.5]];portConstraint=eastwest;dropTarget=0;fontStyle=2" vertex="1" parent="4a63a70a29bb4ada-26">
          <mxGeometry y="108" width="160" height="26" as="geometry" />
        </mxCell>
        <mxCell id="113bda5a66023eaa-8" value="FK" style="shape=partialRectangle;top=0;left=0;bottom=0;fillColor=none;align=left;verticalAlign=top;spacingLeft=4;spacingRight=4;overflow=hidden;rotatable=0;points=[];portConstraint=eastwest;part=1;fontStyle=2" vertex="1" connectable="0" parent="113bda5a66023eaa-7">
          <mxGeometry width="30" height="26" as="geometry" />
        </mxCell>
        <mxCell id="4a63a70a29bb4ada-53" value="CommentDate" style="shape=partialRectangle;top=0;left=0;right=0;bottom=0;align=left;verticalAlign=top;fillColor=none;spacingLeft=34;spacingRight=4;overflow=hidden;rotatable=0;points=[[0,0.5],[1,0.5]];portConstraint=eastwest;dropTarget=0;fontStyle=0" vertex="1" parent="4a63a70a29bb4ada-26">
          <mxGeometry y="134" width="160" height="26" as="geometry" />
        </mxCell>
        <mxCell id="4a63a70a29bb4ada-54" value="" style="shape=partialRectangle;top=0;left=0;bottom=0;fillColor=none;align=left;verticalAlign=top;spacingLeft=4;spacingRight=4;overflow=hidden;rotatable=0;points=[];portConstraint=eastwest;part=1;" vertex="1" connectable="0" parent="4a63a70a29bb4ada-53">
          <mxGeometry width="30" height="26" as="geometry" />
        </mxCell>
        <mxCell id="4a63a70a29bb4ada-35" value="CommentText" style="shape=partialRectangle;top=0;left=0;right=0;bottom=0;align=left;verticalAlign=top;fillColor=none;spacingLeft=34;spacingRight=4;overflow=hidden;rotatable=0;points=[[0,0.5],[1,0.5]];portConstraint=eastwest;dropTarget=0;fontStyle=0" vertex="1" parent="4a63a70a29bb4ada-26">
          <mxGeometry y="160" width="160" height="26" as="geometry" />
        </mxCell>
        <mxCell id="4a63a70a29bb4ada-42" value="" style="shape=partialRectangle;top=0;left=0;bottom=0;fillColor=none;align=left;verticalAlign=top;spacingLeft=4;spacingRight=4;overflow=hidden;rotatable=0;points=[];portConstraint=eastwest;part=1;" vertex="1" connectable="0" parent="4a63a70a29bb4ada-35">
          <mxGeometry width="30" height="26" as="geometry" />
        </mxCell>
        <mxCell id="4a63a70a29bb4ada-46" value="" style="shape=partialRectangle;top=0;left=0;right=0;bottom=0;align=left;verticalAlign=top;fillColor=none;spacingLeft=34;spacingRight=4;overflow=hidden;rotatable=0;points=[[0,0.5],[1,0.5]];portConstraint=eastwest;dropTarget=0;" vertex="1" parent="4a63a70a29bb4ada-26">
          <mxGeometry y="186" width="160" height="10" as="geometry" />
        </mxCell>
        <mxCell id="4a63a70a29bb4ada-47" value="" style="shape=partialRectangle;top=0;left=0;bottom=0;fillColor=none;align=left;verticalAlign=top;spacingLeft=4;spacingRight=4;overflow=hidden;rotatable=0;points=[];portConstraint=eastwest;part=1;" vertex="1" connectable="0" parent="4a63a70a29bb4ada-46">
          <mxGeometry width="30" height="10" as="geometry" />
        </mxCell>
        <mxCell id="4f2698fda814bacb-14" value="UserHabits" style="swimlane;fontStyle=0;childLayout=stackLayout;horizontal=1;startSize=26;fillColor=#ffe6cc;horizontalStack=0;resizeParent=1;resizeParentMax=0;resizeLast=0;collapsible=1;marginBottom=0;swimlaneFillColor=#ffffff;align=center;fontSize=13;dashed=1;strokeColor=#d79b00;strokeWidth=1;" vertex="1" parent="1">
          <mxGeometry x="258" y="144" width="160" height="116" as="geometry" />
        </mxCell>
        <mxCell id="4f2698fda814bacb-15" value="UserHabitID" style="shape=partialRectangle;top=0;left=0;right=0;bottom=1;align=left;verticalAlign=middle;fillColor=none;spacingLeft=60;spacingRight=4;overflow=hidden;rotatable=0;points=[[0,0.5],[1,0.5]];portConstraint=eastwest;dropTarget=0;fontStyle=5;fontSize=12;strokeColor=#000000;perimeterSpacing=0;" vertex="1" parent="4f2698fda814bacb-14">
          <mxGeometry y="26" width="160" height="30" as="geometry" />
        </mxCell>
        <mxCell id="4f2698fda814bacb-16" value="PK" style="shape=partialRectangle;fontStyle=1;top=0;left=0;bottom=0;fillColor=none;align=left;verticalAlign=middle;spacingLeft=4;spacingRight=4;overflow=hidden;rotatable=0;points=[];portConstraint=eastwest;part=1;fontSize=12;" vertex="1" connectable="0" parent="4f2698fda814bacb-15">
          <mxGeometry width="56" height="30" as="geometry" />
        </mxCell>
        <mxCell id="113bda5a66023eaa-1" value="UserID" style="shape=partialRectangle;top=0;left=0;right=0;bottom=0;align=left;verticalAlign=middle;fillColor=none;spacingLeft=60;spacingRight=4;overflow=hidden;rotatable=0;points=[[0,0.5],[1,0.5]];portConstraint=eastwest;dropTarget=0;fontStyle=2;fontSize=12;strokeColor=none;" vertex="1" parent="4f2698fda814bacb-14">
          <mxGeometry y="56" width="160" height="30" as="geometry" />
        </mxCell>
        <mxCell id="113bda5a66023eaa-2" value="FK1" style="shape=partialRectangle;fontStyle=2;top=0;left=0;bottom=0;fillColor=none;align=left;verticalAlign=middle;spacingLeft=4;spacingRight=4;overflow=hidden;rotatable=0;points=[];portConstraint=eastwest;part=1;fontSize=12;" vertex="1" connectable="0" parent="113bda5a66023eaa-1">
          <mxGeometry width="56" height="30" as="geometry" />
        </mxCell>
        <mxCell id="4f2698fda814bacb-17" value="HabitID" style="shape=partialRectangle;top=0;left=0;right=0;bottom=1;align=left;verticalAlign=middle;fillColor=none;spacingLeft=60;spacingRight=4;overflow=hidden;rotatable=0;points=[[0,0.5],[1,0.5]];portConstraint=eastwest;dropTarget=0;fontStyle=2;fontSize=12;dashed=1;strokeColor=#D79B00;" vertex="1" parent="4f2698fda814bacb-14">
          <mxGeometry y="86" width="160" height="30" as="geometry" />
        </mxCell>
        <mxCell id="4f2698fda814bacb-18" value="FK2" style="shape=partialRectangle;fontStyle=2;top=0;left=0;bottom=0;fillColor=none;align=left;verticalAlign=middle;spacingLeft=4;spacingRight=4;overflow=hidden;rotatable=0;points=[];portConstraint=eastwest;part=1;fontSize=12;" vertex="1" connectable="0" parent="4f2698fda814bacb-17">
          <mxGeometry width="56" height="30" as="geometry" />
        </mxCell>
        <mxCell id="4f2698fda814bacb-22" value="" style="endArrow=none;dashed=1;html=1;strokeColor=#000066;fontSize=13;rounded=0;edgeStyle=orthogonalEdgeStyle;entryX=0.5;entryY=0;" edge="1" source="4a63a70a29bb4ada-1" target="4f2698fda814bacb-14" parent="1">
          <mxGeometry width="50" height="50" relative="1" as="geometry">
            <mxPoint x="110" y="630" as="sourcePoint" />
            <mxPoint x="160" y="580" as="targetPoint" />
          </mxGeometry>
        </mxCell>
        <mxCell id="4f2698fda814bacb-24" value="" style="endArrow=none;dashed=1;html=1;strokeColor=#000066;fontSize=13;rounded=0;edgeStyle=orthogonalEdgeStyle;entryX=0.5;entryY=0;" edge="1" source="4a63a70a29bb4ada-32" target="4f2698fda814bacb-14" parent="1">
          <mxGeometry width="50" height="50" relative="1" as="geometry">
            <mxPoint x="250" y="136.33333333333337" as="sourcePoint" />
            <mxPoint x="348.33333333333337" y="161.66666666666663" as="targetPoint" />
          </mxGeometry>
        </mxCell>
        <mxCell id="5ecfb9fce94ea102-1" style="edgeStyle=none;rounded=0;html=1;startArrow=ERmandOne;startFill=0;endArrow=ERzeroToMany;endFill=1;jettySize=auto;orthogonalLoop=1;strokeColor=#000066;fontSize=13;exitX=1;exitY=0.5;entryX=0;entryY=0.5;" edge="1" source="4a63a70a29bb4ada-33" target="4a63a70a29bb4ada-13" parent="1">
          <mxGeometry relative="1" as="geometry">
            <mxPoint x="589" y="99" as="sourcePoint" />
            <mxPoint x="725" y="99" as="targetPoint" />
          </mxGeometry>
        </mxCell>
        <mxCell id="5ecfb9fce94ea102-2" style="edgeStyle=orthogonalEdgeStyle;rounded=0;html=1;exitX=0.5;exitY=0;entryX=1;entryY=0.5;startArrow=none;startFill=0;endArrow=none;endFill=0;jettySize=auto;orthogonalLoop=1;strokeColor=none;fontSize=13;dashed=1;" edge="1" target="4a63a70a29bb4ada-33" parent="1">
          <mxGeometry relative="1" as="geometry">
            <mxPoint x="633" y="174" as="sourcePoint" />
          </mxGeometry>
        </mxCell>
      </root>
    </mxGraphModel>
  </diagram>
</mxfile>
